<svg id="next_1_" data-name="next (1)" xmlns="http://www.w3.org/2000/svg" width="14.077" height="12.451" viewBox="0 0 14.077 12.451">
  <path id="Path_3" data-name="Path 3" d="M14.054,61.347a.332.332,0,0,0-.064-.107l-3.519-3.931a.272.272,0,0,0-.415.008.356.356,0,0,0,0,.455l3.019,3.372H7.332C3.608,61.14.591,57.77.587,53.611a.312.312,0,0,0-.293-.328A.312.312,0,0,0,0,53.611c0,4.521,3.284,8.184,7.332,8.189h5.744l-3.018,3.371a.355.355,0,0,0-.007.463.272.272,0,0,0,.415.008l.007-.008L13.991,61.7a.356.356,0,0,0,.064-.357Z" transform="translate(0 -53.283)" fill="#707070"/>
  <path id="Path_4" data-name="Path 4" d="M362.941,189.937a.312.312,0,0,1-.294-.327.348.348,0,0,1,.086-.232l3.312-3.7-3.312-3.7a.355.355,0,0,1,.007-.463.272.272,0,0,1,.407,0l3.519,3.931a.355.355,0,0,1,0,.463l-3.519,3.931A.279.279,0,0,1,362.941,189.937Z" transform="translate(-352.676 -177.489)" fill="#707070"/>
  <path id="Path_5" data-name="Path 5" d="M13.784,61.8H7.332C3.284,61.795,0,58.131,0,53.611a.312.312,0,0,1,.293-.328.312.312,0,0,1,.293.328c0,4.159,3.022,7.529,6.745,7.534h6.452a.33.33,0,0,1,0,.655Z" transform="translate(0 -53.283)" fill="#707070"/>
</svg>
