<svg xmlns="http://www.w3.org/2000/svg" width="14.077" height="12.451" viewBox="0 0 14.077 12.451">
  <g id="next_1_" data-name="next (1)" transform="translate(14.077 12.451) rotate(180)">
    <path id="Path_3" data-name="Path 3" d="M14.054,8.064a.332.332,0,0,0-.064-.107L10.471,4.026a.272.272,0,0,0-.415.008.356.356,0,0,0,0,.455l3.019,3.372H7.332C3.608,7.857.591,4.487.587.328A.312.312,0,0,0,.293,0,.312.312,0,0,0,0,.328C0,4.848,3.284,8.512,7.332,8.517h5.744l-3.018,3.371a.355.355,0,0,0-.007.463.272.272,0,0,0,.415.008l.007-.008L13.991,8.42a.356.356,0,0,0,.064-.357Z" transform="translate(0)" fill="#707070"/>
    <path id="Path_4" data-name="Path 4" d="M.294,8.512A.312.312,0,0,1,0,8.185a.348.348,0,0,1,.086-.232L3.4,4.254.086.555A.355.355,0,0,1,.093.092.272.272,0,0,1,.5.092L4.02,4.023a.355.355,0,0,1,0,.463L.5,8.417A.279.279,0,0,1,.294,8.512Z" transform="translate(9.971 3.935)" fill="#707070"/>
    <path id="Path_5" data-name="Path 5" d="M13.784,8.517H7.332C3.284,8.512,0,4.848,0,.328A.312.312,0,0,1,.293,0,.312.312,0,0,1,.587.328c0,4.159,3.022,7.529,6.745,7.534h6.452a.33.33,0,0,1,0,.655Z" fill="#707070"/>
  </g>
</svg>
